Coordinates
version=1
nRows=30
nColumns=38
inDegrees=no

Units are S.I. units (second, meters, Newtons, ...)
If the header above contains a line with 'inDegrees', this indicates whether rotational values are in degrees (yes) or radians (no).

endheader
time	pelvis_tilt	pelvis_list	pelvis_rotation	pelvis_tx	pelvis_ty	pelvis_tz	hip_flexion_r	hip_adduction_r	hip_rotation_r	knee_angle_r	ankle_angle_r	subtalar_angle_r	mtp_angle_r	hip_flexion_l	hip_adduction_l	hip_rotation_l	knee_angle_l	ankle_angle_l	subtalar_angle_l	mtp_angle_l	lumbar_extension	lumbar_bending	lumbar_rotation	arm_flex_r	arm_add_r	arm_rot_r	elbow_flex_r	pro_sup_r	wrist_flex_r	wrist_dev_r	arm_flex_l	arm_add_l	arm_rot_l	elbow_flex_l	pro_sup_l	wrist_flex_l	wrist_dev_l
0	-2.61453	1.38167	-2.18309	0.648982	-0.0154757	1.04661	-0.0609156	-0.12558	0.0916214	1.1745	-0.236719	0	0	0.0717459	0.100827	-0.347003	0.493617	-0.175481	0	0	-0.423944	-0.131672	0.0658923	-0.328648	-0.173055	-0.210117	0.652404	0.349808	0	0	-0.0840785	-0.656115	0.976084	0.698957	0.79413	0	0
0.01	-2.61128	1.38707	-2.18077	0.647581	-0.00549775	1.04745	-0.0246784	-0.117759	0.0956715	1.2133	-0.224991	0	0	0.0655884	0.100601	-0.339797	0.492208	-0.17159	0	0	-0.413609	-0.128174	0.0561804	-0.327074	-0.175654	-0.198541	0.647856	0.360298	0	0	-0.0800812	-0.664665	0.973546	0.704014	0.795831	0	0
0.02	-2.64191	1.38536	-2.14463	0.646165	0.00455561	1.04903	-0.00151122	-0.109568	0.0966177	1.24209	-0.209254	0	0	0.046905	0.0984596	-0.334511	0.486813	-0.168232	0	0	-0.430057	-0.116269	0.0684124	-0.344242	-0.169844	-0.231675	0.671945	0.368849	0	0	-0.0477966	-0.659015	0.974684	0.693228	0.821598	0	0
0.03	-2.66806	1.38772	-2.11282	0.644775	0.0149917	1.05067	0.0245339	-0.0996324	0.0968632	1.26426	-0.201896	0	0	0.0313399	0.094461	-0.328492	0.479043	-0.166811	0	0	-0.42928	-0.107994	0.060499	-0.343799	-0.170928	-0.231174	0.669672	0.368082	0	0	-0.0401838	-0.662929	0.970422	0.6937	0.823973	0	0
0.04	-2.69763	1.39086	-2.07745	0.643441	0.025459	1.05239	0.0500207	-0.0887714	0.0952123	1.28072	-0.188209	0	0	0.0155555	0.0898362	-0.321002	0.468957	-0.165508	0	0	-0.427127	-0.0988764	0.050709	-0.34094	-0.173775	-0.224408	0.663662	0.369903	0	0	-0.0446323	-0.661706	0.931418	0.692277	0.853099	0	0
0.05	-2.73474	1.39282	-2.03485	0.642207	0.0357173	1.05421	0.0733124	-0.0774552	0.0930256	1.29157	-0.180156	0	0	-0.00147609	0.0841926	-0.315883	0.458075	-0.164509	0	0	-0.426036	-0.0889557	0.0431515	-0.338999	-0.175543	-0.2209	0.658368	0.373267	0	0	-0.0373152	-0.665065	0.925161	0.692512	0.855391	0	0
0.06	-2.77363	1.3944	-1.99162	0.641014	0.0462092	1.05602	0.0955947	-0.0662643	0.0900438	1.29711	-0.174174	0	0	-0.0201508	0.0792187	-0.313084	0.447645	-0.16375	0	0	-0.425686	-0.0794039	0.0373942	-0.337332	-0.177693	-0.217196	0.653398	0.374917	0	0	-0.0271275	-0.669814	0.926791	0.694721	0.850714	0	0
0.07	-2.80785	1.39611	-1.95268	0.639827	0.0566145	1.05772	0.117718	-0.0562835	0.086092	1.2975	-0.167572	0	0	-0.0384217	0.0754139	-0.311012	0.434983	-0.163082	0	0	-0.424084	-0.0705771	0.0314533	-0.335486	-0.178862	-0.214758	0.647442	0.375247	0	0	-0.0175486	-0.674685	0.926629	0.697212	0.848573	0	0
0.08	-2.83958	1.3988	-1.91551	0.638661	0.0671441	1.05919	0.140176	-0.0465821	0.0805386	1.29344	-0.160921	0	0	-0.0554113	0.0719797	-0.307454	0.421833	-0.162333	0	0	-0.420613	-0.0617663	0.025304	-0.333229	-0.179465	-0.212217	0.640402	0.375784	0	0	-0.00859434	-0.679641	0.925268	0.700169	0.84833	0	0
0.09	-2.86911	1.40148	-1.88144	0.637494	0.0776193	1.06047	0.162337	-0.0375975	0.0757913	1.28549	-0.153712	0	0	-0.071857	0.0694264	-0.303122	0.408169	-0.161777	0	0	-0.416647	-0.0534683	0.0197023	-0.330989	-0.18093	-0.207834	0.634175	0.378444	0	0	-0.000515684	-0.684576	0.921825	0.704348	0.849467	0	0
0.1	-2.89732	1.40396	-1.84903	0.636353	0.0879777	1.06155	0.183786	-0.029172	0.0717539	1.27375	-0.146941	0	0	-0.0873145	0.0668011	-0.299186	0.395339	-0.16149	0	0	-0.412895	-0.0455195	0.0142851	-0.329206	-0.182241	-0.204559	0.630026	0.380795	0	0	0.00738738	-0.690125	0.917644	0.71028	0.85139	0	0
0.11	-2.92348	1.40637	-1.81706	0.635135	0.0981766	1.06252	0.203945	-0.0219574	0.066624	1.25737	-0.12864	0	0	-0.103499	0.0654446	-0.285939	0.376359	-0.16214	0	0	-0.408926	-0.0380572	0.00246174	-0.322382	-0.183591	-0.197817	0.621904	0.391418	0	0	-0.0234329	-0.680804	0.800982	0.717323	0.942249	0	0
0.12	-2.95457	1.4089	-1.78278	0.634139	0.108667	1.06316	0.223812	-0.013612	0.062644	1.23919	-0.125895	0	0	-0.11658	0.0614215	-0.281481	0.369576	-0.161508	0	0	-0.405153	-0.0299656	-0.00162864	-0.321652	-0.184543	-0.196824	0.62156	0.391969	0	0	-0.0146853	-0.687227	0.800842	0.725321	0.941314	0	0
0.13	-2.98504	1.41154	-1.74854	0.633168	0.119033	1.06357	0.242874	-0.00591092	0.0593444	1.21696	-0.122266	0	0	-0.129031	0.0574384	-0.274782	0.361605	-0.160106	0	0	-0.40072	-0.0219923	-0.0061146	-0.320564	-0.185262	-0.19547	0.620921	0.39314	0	0	-0.00738739	-0.694191	0.798218	0.73522	0.942588	0	0
0.14	-3.01403	1.41451	-1.71613	0.632294	0.129404	1.06377	0.261306	0.00117608	0.0570142	1.19125	-0.118136	0	0	-0.141052	0.053901	-0.268117	0.353522	-0.158074	0	0	-0.395748	-0.0145655	-0.0103401	-0.319179	-0.186032	-0.193499	0.620341	0.39524	0	0	-0.00149759	-0.701195	0.792512	0.746343	0.945471	0	0
0.15	-3.04134	1.41728	-1.6859	0.631512	0.139769	1.06383	0.278422	0.0073183	0.0554178	1.16239	-0.113294	0	0	-0.153405	0.0510237	-0.261933	0.344995	-0.155616	0	0	-0.390744	-0.00789411	-0.0143036	-0.317232	-0.186976	-0.190406	0.619386	0.398636	0	0	0.00331309	-0.708167	0.784496	0.758364	0.9503	0	0
0.16	-3.06623	1.41998	-1.65863	0.630816	0.150132	1.06369	0.294412	0.012337	0.0539625	1.13127	-0.108338	0	0	-0.165952	0.0487393	-0.255847	0.336184	-0.15288	0	0	-0.385511	-0.00221524	-0.0180513	-0.314986	-0.187696	-0.187665	0.618112	0.401953	0	0	0.00711409	-0.715386	0.774923	0.771479	0.957479	0	0
0.17	-3.07315	1.42781	-1.64845	0.630397	0.160728	1.0633	0.314252	0.0142544	0.0519707	1.09626	-0.0988561	0	0	-0.174606	0.0499726	-0.24007	0.321671	-0.149778	0	0	-0.341276	-0.00155629	-0.0984881	-0.277872	-0.221225	-0.0621428	0.590043	0.357405	0	0	-0.129132	-0.688109	0.532828	0.779204	1.08477	0	0
0.18	-3.08301	1.43315	-1.63679	0.629924	0.171006	1.06273	0.331136	0.0154133	0.0503351	1.06007	-0.0965922	0	0	-0.183584	0.0497661	-0.233198	0.312783	-0.147872	0	0	-0.284697	-0.00790943	-0.206062	-0.207454	-0.294397	0.25684	0.549786	0.15029	0	0	-0.267205	-0.67098	0.371818	0.793164	1.11431	0	0
0.19	-3.09182	1.43766	-1.62767	0.629458	0.18128	1.06175	0.346922	0.0154822	0.0486757	1.02416	-0.0950497	0	0	-0.19221	0.049208	-0.232742	0.307974	-0.146061	0	0	-0.279019	-0.00440911	-0.203594	-0.215766	-0.26854	0.155299	0.548327	0.250269	0	0	-0.253992	-0.683923	0.391027	0.804676	1.10428	0	0
0.2	-3.09843	1.44183	-1.62114	0.629026	0.191559	1.06062	0.361012	0.0143869	0.0456035	0.985461	-0.0935346	0	0	-0.201644	0.0494557	-0.231413	0.301926	-0.143355	0	0	-0.272333	-0.00217977	-0.204947	-0.21503	-0.270255	0.159827	0.551182	0.245438	0	0	-0.250487	-0.692089	0.389135	0.8183	1.10903	0	0
0.21	-3.09857	1.44627	-1.62131	0.628647	0.201855	1.05928	0.374538	0.0117714	0.0409138	0.944922	-0.0924776	0	0	-0.210872	0.0508529	-0.229208	0.295462	-0.140206	0	0	-0.267481	-0.000685223	-0.202163	-0.215838	-0.271731	0.162619	0.554775	0.240371	0	0	-0.2429	-0.70033	0.389062	0.832505	1.11345	0	0
0.22	-3.09313	1.45067	-1.62725	0.628309	0.212201	1.05777	0.387109	0.00792333	0.0343717	0.902626	-0.0918784	0	0	-0.220145	0.0530526	-0.226676	0.288947	-0.136813	0	0	-0.263391	0.00020636	-0.197342	-0.217916	-0.273162	0.164008	0.5592	0.235661	0	0	-0.233111	-0.708101	0.390229	0.846455	1.11693	0	0
0.23	-3.0844	1.45331	-1.63562	0.627898	0.222565	1.05631	0.395863	0.00263635	0.0233079	0.85573	-0.0933501	0	0	-0.232639	0.0563955	-0.218822	0.278555	-0.131254	0	0	-0.264273	0.00151582	-0.187402	-0.229341	-0.239989	0.0365555	0.561935	0.348777	0	0	-0.220231	-0.709852	0.377018	0.860035	1.14378	0	0
0.24	-3.07301	1.45606	-1.64684	0.627514	0.232983	1.05459	0.404911	-0.00270258	0.0104928	0.810631	-0.0919619	0	0	-0.243408	0.0590158	-0.215395	0.272566	-0.127403	0	0	-0.261288	0.00189363	-0.18466	-0.229849	-0.265463	0.119448	0.573528	0.251726	0	0	-0.211213	-0.718054	0.382009	0.874335	1.14359	0	0
0.25	-3.05655	1.45928	-1.66241	0.62716	0.243455	1.05275	0.41399	-0.00863312	-0.00556927	0.765488	-0.0898488	0	0	-0.253437	0.0618504	-0.210638	0.267016	-0.123583	0	0	-0.259049	0.00219736	-0.179559	-0.234362	-0.260716	0.0980653	0.577906	0.262737	0	0	-0.198518	-0.725504	0.388803	0.887474	1.14772	0	0
0.26	-3.03754	1.46253	-1.68005	0.626859	0.253956	1.0508	0.422696	-0.0148997	-0.0243426	0.721015	-0.0882748	0	0	-0.263133	0.0644903	-0.205844	0.262348	-0.119593	0	0	-0.25669	0.00233084	-0.175347	-0.237852	-0.256501	0.0804316	0.581381	0.272147	0	0	-0.186462	-0.732257	0.394557	0.900215	1.15086	0	0
0.27	-3.00859	1.46787	-1.70807	0.626733	0.264624	1.04857	0.43415	-0.0209353	-0.0421148	0.68198	-0.085561	0	0	-0.269359	0.0670769	-0.205097	0.261125	-0.117497	0	0	-0.251125	0.00132808	-0.172049	-0.240707	-0.247143	0.0486365	0.581326	0.304348	0	0	-0.177442	-0.737273	0.397024	0.911822	1.15195	0	0
0.28	-2.99589	1.46893	-1.71744	0.62625	0.275323	1.0467	0.437377	-0.0278504	-0.0710535	0.636551	-0.0858291	0	0	-0.282335	0.0688734	-0.19784	0.255007	-0.112437	0	0	-0.265305	0.00535271	-0.141882	-0.259251	-0.246723	0.0280619	0.601788	0.287193	0	0	-0.129742	-0.743056	0.429258	0.924298	1.16377	0	0
0.29	-2.981	1.46941	-1.72948	0.625894	0.286035	1.04489	0.440314	-0.0346928	-0.100755	0.596164	-0.0878886	0	0	-0.295374	0.0704747	-0.194166	0.250008	-0.109217	0	0	-0.268737	0.00778007	-0.133531	-0.269151	-0.215394	-0.082949	0.610758	0.377521	0	0	-0.109573	-0.745403	0.440061	0.932719	1.17388	0	0
